<svg width="16" height="10" viewBox="0 0 16 10" fill="none" xmlns="http://www.w3.org/2000/svg">
<path fill-rule="evenodd" clip-rule="evenodd" d="M5.95667 0.000485895C5.95667 0.000485895 4.22864 -0.0629029 2.36432 1.25835C2.36432 1.25835 0.5 4.3723 0.5 8.21126C0.5 8.21126 1.53336 9.93463 4.36697 10C4.36697 10 4.78092 9.47209 5.19894 9.00758C3.6072 8.54405 2.9878 7.61699 2.9878 7.61699L3.51973 7.88045C3.62253 7.92109 3.72572 7.96242 3.82966 8.00405L3.82978 8.0041C5.2991 8.5926 6.91646 9.24039 9.65582 8.80751L9.69873 8.79825C10.3039 8.66769 10.91 8.53692 11.5151 8.27762C11.626 8.22307 11.744 8.16853 11.8681 8.11115L11.8683 8.11104C12.1949 7.9601 12.5642 7.7894 12.9583 7.54766C12.9583 7.54766 12.3379 8.47472 10.68 8.93825C11.0218 9.39979 11.5018 9.92869 11.5018 9.92869C13.8244 9.88 14.9834 8.71423 15.3605 8.33495C15.4437 8.25134 15.4888 8.20595 15.5 8.21918C15.5 4.38617 13.6245 1.26627 13.6245 1.26627C11.9483 0.0727876 10.382 0.0193041 10.086 0.0183129L9.89687 0.199564C12.0378 0.793831 13.0742 1.72188 13.0742 1.72188C9.96806 0.232249 6.61269 0.147071 3.54007 1.32372C3.05696 1.52478 2.78031 1.65651 2.78031 1.65651C2.78031 1.65651 3.81469 0.664082 6.09601 0.134195L5.95667 0.000485895ZM10.0921 0.0133609L10.1257 0.00147579H10.1044L10.0921 0.0133609ZM11.3493 5.28263C11.3493 6.01197 10.7422 6.60322 9.99319 6.60322C9.24423 6.60322 8.63708 6.01197 8.63708 5.28263C8.63708 4.55328 9.24423 3.96204 9.99319 3.96204C10.7422 3.96204 11.3493 4.55328 11.3493 5.28263ZM5.92498 6.60322C6.67394 6.60322 7.2811 6.01197 7.2811 5.28263C7.2811 4.55328 6.67394 3.96204 5.92498 3.96204C5.17602 3.96204 4.56887 4.55328 4.56887 5.28263C4.56887 6.01197 5.17602 6.60322 5.92498 6.60322Z" fill="#AEBCD2"/>
</svg>
