<svg width="18" height="18" viewBox="0 0 18 18" fill="none" xmlns="http://www.w3.org/2000/svg">
<path d="M4.78125 5.46404L4.05298 5.64326L4.05592 5.65523L4.05926 5.6671L4.78125 5.46404ZM2.25 2.99976C1.83579 2.99976 1.5 3.33554 1.5 3.74976C1.5 4.16397 1.83579 4.49976 2.25 4.49976V2.99976ZM6.31492 10.9171L7.03691 10.714L6.31492 10.9171ZM14.2163 10.9171L14.9383 11.1202L14.2163 10.9171ZM14.9383 11.1202L16.2039 6.62016L14.76 6.21404L13.4943 10.714L14.9383 11.1202ZM14.76 4.71404H4.78125V6.21404H14.76V4.71404ZM4.05926 5.6671L5.59293 11.1202L7.03691 10.714L5.50324 5.26098L4.05926 5.6671ZM7.03691 12.214H13.4943V10.714H7.03691V12.214ZM5.50952 5.28482L5.22811 4.14131L3.77157 4.49976L4.05298 5.64326L5.50952 5.28482ZM3.77157 2.99976H2.25V4.49976H3.77157V2.99976ZM5.22811 4.14131C5.06314 3.47095 4.46193 2.99976 3.77157 2.99976V4.49976V4.49976L5.22811 4.14131ZM5.59293 11.1202C5.77488 11.7671 6.36489 12.214 7.03691 12.214V10.714L5.59293 11.1202ZM16.2039 6.62016C16.4731 5.66329 15.754 4.71404 14.76 4.71404V6.21404V6.21404L16.2039 6.62016ZM13.4943 10.714V12.214C14.1664 12.214 14.7564 11.7671 14.9383 11.1202L13.4943 10.714Z" fill="#68E1A1"/>
<path d="M8.625 14.4642C8.625 14.9727 8.22071 15.3749 7.73438 15.3749C7.24804 15.3749 6.84375 14.9727 6.84375 14.4642C6.84375 13.9556 7.24804 13.5535 7.73438 13.5535C8.22071 13.5535 8.625 13.9556 8.625 14.4642Z" fill="#68E1A1" stroke="#68E1A1" stroke-width="0.75"/>
<path d="M13.6875 14.4642C13.6875 14.9727 13.2832 15.3749 12.7969 15.3749C12.3105 15.3749 11.9062 14.9727 11.9062 14.4642C11.9062 13.9556 12.3105 13.5535 12.7969 13.5535C13.2832 13.5535 13.6875 13.9556 13.6875 14.4642Z" fill="#68E1A1" stroke="#68E1A1" stroke-width="0.75"/>
</svg>
