<svg width="82" height="40" viewBox="0 0 82 40" fill="none" xmlns="http://www.w3.org/2000/svg">
<g filter="url(#filter0_d)">
<rect x="4.5" y="0.5" width="73" height="31" rx="15.5" stroke="#68E1A1"/>
<path d="M27.7812 12.464L27.053 12.6433L27.0559 12.6552L27.0593 12.6671L27.7812 12.464ZM25.25 9.99976C24.8358 9.99976 24.5 10.3355 24.5 10.7498C24.5 11.164 24.8358 11.4998 25.25 11.4998V9.99976ZM29.3149 17.9171L30.0369 17.714L29.3149 17.9171ZM37.2163 17.9171L37.9383 18.1202L37.2163 17.9171ZM37.9383 18.1202L39.2039 13.6202L37.76 13.214L36.4943 17.714L37.9383 18.1202ZM37.76 11.714H27.7812V13.214H37.76V11.714ZM27.0593 12.6671L28.5929 18.1202L30.0369 17.714L28.5032 12.261L27.0593 12.6671ZM30.0369 19.214H36.4943V17.714H30.0369V19.214ZM28.5095 12.2848L28.2281 11.1413L26.7716 11.4998L27.053 12.6433L28.5095 12.2848ZM26.7716 9.99976H25.25V11.4998H26.7716V9.99976ZM28.2281 11.1413C28.0631 10.471 27.4619 9.99976 26.7716 9.99976V11.4998V11.4998L28.2281 11.1413ZM28.5929 18.1202C28.7749 18.7671 29.3649 19.214 30.0369 19.214V17.714L28.5929 18.1202ZM39.2039 13.6202C39.4731 12.6633 38.754 11.714 37.76 11.714V13.214V13.214L39.2039 13.6202ZM36.4943 17.714V19.214C37.1664 19.214 37.7564 18.7671 37.9383 18.1202L36.4943 17.714Z" fill="#68E1A1"/>
<path d="M31.625 21.4642C31.625 21.9727 31.2207 22.3749 30.7344 22.3749C30.248 22.3749 29.8438 21.9727 29.8438 21.4642C29.8438 20.9556 30.248 20.5535 30.7344 20.5535C31.2207 20.5535 31.625 20.9556 31.625 21.4642Z" fill="#68E1A1" stroke="#68E1A1" stroke-width="0.75"/>
<path d="M36.6875 21.4642C36.6875 21.9727 36.2832 22.3749 35.7969 22.3749C35.3105 22.3749 34.9062 21.9727 34.9062 21.4642C34.9062 20.9556 35.3105 20.5535 35.7969 20.5535C36.2832 20.5535 36.6875 20.9556 36.6875 21.4642Z" fill="#68E1A1" stroke="#68E1A1" stroke-width="0.75"/>
<path d="M50 12V20" stroke="#68E1A1" stroke-width="2" stroke-linecap="round"/>
<path d="M46 16H54" stroke="#68E1A1" stroke-width="2" stroke-linecap="round"/>
</g>
<defs>
<filter id="filter0_d" x="0" y="0" width="82" height="40" filterUnits="userSpaceOnUse" color-interpolation-filters="sRGB">
<feFlood flood-opacity="0" result="BackgroundImageFix"/>
<feColorMatrix in="SourceAlpha" type="matrix" values="0 0 0 0 0 0 0 0 0 0 0 0 0 0 0 0 0 0 127 0"/>
<feOffset dy="4"/>
<feGaussianBlur stdDeviation="2"/>
<feColorMatrix type="matrix" values="0 0 0 0 0 0 0 0 0 0 0 0 0 0 0 0 0 0 0.25 0"/>
<feBlend mode="normal" in2="BackgroundImageFix" result="effect1_dropShadow"/>
<feBlend mode="normal" in="SourceGraphic" in2="effect1_dropShadow" result="shape"/>
</filter>
</defs>
</svg>
