<svg width="17" height="16" viewBox="0 0 17 16" fill="none" xmlns="http://www.w3.org/2000/svg">
<path fill-rule="evenodd" clip-rule="evenodd" d="M4.58316 1.79933C2.50883 2.78802 0.806093 3.61268 0.799347 3.6319C0.792601 3.65113 0.855869 3.69303 0.939934 3.72499C1.024 3.75692 1.46931 3.95323 1.92956 4.16118C2.38976 4.36916 3.26925 4.76526 3.88397 5.04142C4.49869 5.31762 5.07238 5.57562 5.15884 5.61483C5.2453 5.654 5.33212 5.68608 5.35184 5.68608C5.37156 5.68608 5.83068 5.44431 6.3722 5.14881C6.91371 4.85331 7.49147 4.53991 7.65613 4.45239C7.82079 4.36484 8.05059 4.23974 8.16683 4.17441C8.28306 4.10904 8.39264 4.05557 8.41036 4.05557C8.42808 4.05557 8.59346 4.14737 8.77783 4.25961C9.08699 4.44773 10.6678 5.39915 11.0925 5.6526C11.3156 5.78577 11.3511 5.78679 11.617 5.6675C11.8581 5.55936 15.3532 4.13653 16.0287 3.87151C16.2756 3.77463 16.4775 3.68681 16.4773 3.67638C16.4771 3.66596 16.3559 3.60237 16.2079 3.5351C16.06 3.46783 15.6066 3.26113 15.2004 3.07579C14.7943 2.89044 14.2644 2.64909 14.0229 2.53946C13.3914 2.25276 12.9575 2.05505 10.5773 0.969207C9.40669 0.435196 8.42772 -0.000946428 8.40178 1.54242e-06C8.37587 0.000949513 6.65748 0.810668 4.58316 1.79933ZM0.510986 8.75997V12.7818L0.840301 12.9268C1.02144 13.0066 1.50193 13.2173 1.90808 13.3952C2.31424 13.5731 2.82617 13.7986 3.04572 13.8963C3.26526 13.9941 3.63349 14.156 3.86401 14.2561C4.09453 14.3563 4.56156 14.5611 4.90185 14.7114C5.24215 14.8618 5.72714 15.0749 5.97961 15.1851C6.23209 15.2953 6.75193 15.5238 7.13485 15.6927C7.51777 15.8617 7.84573 16 7.86366 16C7.88158 16 7.89164 15.0007 7.88597 13.7793L7.87567 11.5586L6.33284 10.7593L4.79001 9.95991L4.79604 8.27112L4.80206 6.58237L4.3031 6.3671C4.02867 6.24868 3.30118 5.93354 2.68646 5.66674C1.06651 4.96365 0.541603 4.73811 0.525356 4.73811C0.517453 4.73811 0.510986 6.54794 0.510986 8.75997ZM15.6994 5.08253C15.2603 5.27148 14.6943 5.51761 14.4415 5.62951C14.1887 5.74137 13.8385 5.89247 13.6631 5.9652C13.4878 6.03797 13.0928 6.20769 12.7855 6.34242L12.2266 6.58734V8.28052V9.97375L11.9073 10.137C11.4831 10.354 9.47267 11.3995 9.28306 11.5018L9.13365 11.5825L9.13338 13.7912C9.13318 15.0061 9.14795 16 9.16615 16C9.18435 16 9.46728 15.8827 9.79484 15.7393C10.726 15.3317 12.5087 14.5466 12.9052 14.3695C13.1028 14.2812 13.3363 14.1791 13.4241 14.1425C13.5719 14.081 14.2329 13.7901 15.1006 13.4047C15.2982 13.3169 15.6907 13.1452 15.9729 13.0231C16.255 12.9009 16.4931 12.7828 16.5021 12.7605C16.511 12.7382 16.5137 10.9243 16.508 8.72952L16.4977 4.73906L15.6994 5.08253Z" fill="#AEBCD2"/>
</svg>
