<svg width="22" height="16" viewBox="0 0 22 16" fill="none" xmlns="http://www.w3.org/2000/svg">
<path d="M16.8126 0C14.1976 0 12.0644 2.1042 12.0441 4.69854L9.07463 8.93424C8.24617 8.85932 7.53171 9.03024 6.90002 9.41346L1.25018 6.00713C0.806162 5.73943 0.23999 6.05919 0.23999 6.57767V9.555C0.23999 9.77897 0.352525 9.98795 0.539513 10.1112L5.23842 13.209C5.58589 14.8004 7.01715 16 8.71076 16C10.552 16 12.0777 14.5928 12.2456 12.8008L16.8173 9.47668C19.4401 9.47668 21.5733 7.36078 21.5733 4.73678C21.5733 2.12527 19.4393 0 16.8126 0ZM6.40107 13.6749C6.8274 13.8373 7.25842 14.016 7.68553 14.183C8.75292 14.6201 9.96555 14.0995 10.3919 13.0373C10.8229 11.975 10.2997 10.7762 9.23391 10.3508L8.14622 9.91376C9.76566 9.55473 11.325 10.7676 11.3258 12.4542C11.3269 15.0244 7.67304 16.0507 6.40107 13.6749ZM16.8173 7.91102C15.0519 7.91102 13.6175 6.49444 13.6175 4.73678C13.6175 2.98693 15.048 1.56254 16.8173 1.56254C18.5703 1.56254 20.0046 2.98693 20.0046 4.73678C20.0046 6.49912 18.5695 7.91571 16.8173 7.91102Z" fill="#AEBCD2"/>
</svg>
