<svg width="20" height="12" viewBox="0 0 20 12" fill="none" xmlns="http://www.w3.org/2000/svg">
<path d="M19.1142 1.38897C19.2446 0.972233 19.1142 0.666626 18.4975 0.666626H16.4546C15.9348 0.666626 15.6973 0.931008 15.5668 1.22138C15.5668 1.22138 14.5282 3.65817 13.0563 5.23818C12.5813 5.69794 12.3642 5.84312 12.1052 5.84312C11.9758 5.84312 11.7876 5.69794 11.7876 5.2812V1.38897C11.7876 0.888886 11.6376 0.666626 11.2044 0.666626H7.99434C7.67016 0.666626 7.47454 0.897848 7.47454 1.11831C7.47454 1.59151 8.21046 1.70085 8.28591 3.03441V5.92737C8.28591 6.56098 8.1676 6.6766 7.90677 6.6766C7.21464 6.6766 5.53041 4.23084 4.53086 1.43109C4.33617 0.887093 4.13961 0.667523 3.61795 0.667523H1.57601C0.991931 0.667523 0.875488 0.931904 0.875488 1.22228C0.875488 1.74387 1.56762 4.32495 4.09956 7.7386C5.78751 10.0696 8.16388 11.3333 10.3288 11.3333C11.6264 11.3333 11.7866 11.0528 11.7866 10.5688V8.80688C11.7866 8.24586 11.9105 8.13293 12.3214 8.13293C12.6232 8.13293 13.143 8.27991 14.3549 9.40286C15.7392 10.7346 15.9683 11.3324 16.7462 11.3324H18.7881C19.3713 11.3324 19.6628 11.0519 19.4952 10.498C19.3117 9.94686 18.6503 9.14475 17.7727 8.19567C17.2958 7.65436 16.5832 7.07182 16.3661 6.78056C16.0634 6.40505 16.1509 6.23925 16.3661 5.90586C16.367 5.90675 18.8552 2.53522 19.1142 1.38897Z" fill="#AEBCD2"/>
</svg>
