<svg width="42" height="30" viewBox="0 0 42 30" fill="none" xmlns="http://www.w3.org/2000/svg">
<path fill-rule="evenodd" clip-rule="evenodd" d="M15.2782 0.00145769C15.2782 0.00145769 10.4397 -0.188709 5.21961 3.77505C5.21961 3.77505 -0.000488281 13.1169 -0.000488281 24.6338C-0.000488281 24.6338 2.89292 29.8039 10.827 30C10.827 30 11.9861 28.4163 13.1566 27.0227C8.69968 25.6321 6.96534 22.851 6.96534 22.851L8.45476 23.6414C8.74244 23.7632 9.03123 23.8871 9.3221 24.012L9.32289 24.0123C13.437 25.7778 17.9656 27.7212 25.6358 26.4225L25.7559 26.3947C27.4503 26.0031 29.1474 25.6108 30.8417 24.8329C31.1524 24.6691 31.483 24.5054 31.8309 24.3331C32.7452 23.8803 33.7793 23.3682 34.8827 22.643C34.8827 22.643 33.1456 25.4242 28.5036 26.8147C29.4605 28.1994 30.8046 29.7861 30.8046 29.7861C37.3078 29.64 40.5531 26.1427 41.609 25.0049C41.8418 24.754 41.9681 24.6178 41.9995 24.6576C41.9995 13.1585 36.7481 3.79881 36.7481 3.79881C32.0548 0.218363 27.6692 0.0579122 26.8404 0.0549387L26.3107 0.598692C32.3054 2.38149 35.2074 5.16563 35.2074 5.16563C26.5101 0.696748 17.1151 0.441214 8.51171 3.97115C7.15899 4.57433 6.38438 4.96952 6.38438 4.96952C6.38438 4.96952 9.28064 1.99225 15.6683 0.402586L15.2782 0.00145769ZM26.8575 0.0400826L26.9515 0.00442738H26.8917L26.8575 0.0400826ZM30.3775 15.8476C30.3775 18.0356 28.6774 19.8094 26.5803 19.8094C24.4832 19.8094 22.7832 18.0356 22.7832 15.8476C22.7832 13.6596 24.4832 11.8858 26.5803 11.8858C28.6774 11.8858 30.3775 13.6596 30.3775 15.8476ZM15.1897 19.8094C17.2868 19.8094 18.9868 18.0356 18.9868 15.8476C18.9868 13.6596 17.2868 11.8858 15.1897 11.8858C13.0926 11.8858 11.3926 13.6596 11.3926 15.8476C11.3926 18.0356 13.0926 19.8094 15.1897 19.8094Z" fill="#626A98"/>
</svg>
