<svg width="48" height="48" viewBox="0 0 48 48" fill="none" xmlns="http://www.w3.org/2000/svg">
<path fill-rule="evenodd" clip-rule="evenodd" d="M12.217 5.39798C5.99402 8.36406 0.885807 10.838 0.865569 10.8957C0.845331 10.9534 1.03514 11.0791 1.28733 11.175C1.53953 11.2708 2.87547 11.8597 4.2562 12.4835C5.63681 13.1075 8.27528 14.2958 10.1194 15.1243C11.9636 15.9529 13.6847 16.7269 13.9441 16.8445C14.2034 16.962 14.4639 17.0582 14.523 17.0582C14.5822 17.0582 15.9596 16.3329 17.5841 15.4464C19.2087 14.5599 20.9419 13.6197 21.4359 13.3572C21.9299 13.0945 22.6193 12.7192 22.968 12.5232C23.3167 12.3271 23.6454 12.1667 23.6986 12.1667C23.7518 12.1667 24.2479 12.4421 24.801 12.7788C25.7285 13.3432 30.471 16.1974 31.745 16.9578C32.4142 17.3573 32.5209 17.3604 33.3186 17.0025C34.042 16.6781 44.527 12.4096 46.5536 11.6145C47.2945 11.3239 47.9002 11.0604 47.8996 11.0291C47.899 10.9979 47.5353 10.8071 47.0914 10.6053C46.6474 10.4035 45.2873 9.7834 44.0688 9.22736C42.8504 8.67132 41.2607 7.94726 40.5362 7.61839C38.6416 6.75828 37.3402 6.16515 30.1993 2.90762C26.6876 1.30559 23.7507 -0.00283928 23.6729 4.62725e-06C23.5951 0.00284854 18.44 2.432 12.217 5.39798ZM0.000488281 26.2799V38.3455L0.988434 38.7805C1.53186 39.0197 2.97331 39.652 4.19177 40.1856C5.41024 40.7192 6.94604 41.3958 7.60467 41.689C8.2633 41.9822 9.36801 42.4679 10.0596 42.7683C10.7511 43.0688 12.1522 43.6834 13.1731 44.1343C14.194 44.5853 15.6489 45.2247 16.4064 45.5554C17.1638 45.8859 18.7233 46.5713 19.8721 47.0782C21.0209 47.5852 22.0047 48 22.0585 48C22.1123 48 22.1424 45.0021 22.1254 41.338L22.0945 34.6759L17.466 32.2778L12.8376 29.8797L12.8556 24.8134L12.8737 19.7471L11.3768 19.1013C10.5535 18.746 8.37108 17.8006 6.52692 17.0002C1.66706 14.891 0.0923373 14.2143 0.0435987 14.2143C0.019888 14.2143 0.000488281 19.6438 0.000488281 26.2799ZM45.5657 15.2476C44.2485 15.8144 42.5503 16.5528 41.792 16.8885C41.0338 17.2241 39.9829 17.6774 39.4569 17.8956C38.9308 18.1139 37.746 18.6231 36.8239 19.0273L35.1474 19.762V24.8416V29.9213L34.1894 30.4111C32.9168 31.0619 26.8855 34.1986 26.3167 34.5055L25.8685 34.7474L25.8677 41.3737C25.8671 45.0182 25.9114 48 25.966 48C26.0206 48 26.8694 47.648 27.852 47.2178C30.6455 45.995 35.9936 43.6397 37.1832 43.1085C37.7759 42.8436 38.4765 42.5373 38.7399 42.4276C39.1834 42.2431 41.1662 41.3704 43.7695 40.2141C44.3622 39.9508 45.5397 39.4356 46.3861 39.0692C47.2327 38.7028 47.947 38.3483 47.9738 38.2816C48.0005 38.2147 48.0085 32.7729 47.9916 26.1886L47.9607 14.2172L45.5657 15.2476Z" fill="#626A98"/>
</svg>
