<svg width="72" height="72" viewBox="0 0 72 72" fill="none" xmlns="http://www.w3.org/2000/svg">
<path d="M63 19.9693C61.1229 20.8125 59.1088 21.3844 56.9927 21.6397C59.1534 20.3279 60.8074 18.2472 61.5913 15.7754C59.5645 16.9903 57.3272 17.8724 54.9434 18.3506C53.0345 16.286 50.3192 15 47.3076 15C41.5297 15 36.845 19.7496 36.845 25.6042C36.845 26.4345 36.9374 27.2455 37.1159 28.021C28.422 27.5783 20.7129 23.3554 15.5533 16.9385C14.6514 18.5024 14.1383 20.3246 14.1383 22.2698C14.1383 25.9499 15.9868 29.1971 18.7913 31.0969C17.0767 31.0387 15.4641 30.5605 14.0523 29.7657V29.8982C14.0523 35.0355 17.6599 39.323 22.4434 40.2988C21.567 40.5379 20.6428 40.6704 19.6868 40.6704C19.0112 40.6704 18.3578 40.6025 17.7173 40.4733C19.0493 44.6898 22.9119 47.756 27.4884 47.84C23.9094 50.6833 19.3968 52.3732 14.4953 52.3732C13.6508 52.3732 12.819 52.3215 12 52.2278C16.6306 55.2423 22.128 57 28.0365 57C47.2822 57 57.8022 40.8384 57.8022 26.8223L57.7672 25.4492C59.8227 23.9628 61.6009 22.0953 63 19.9693Z" fill="#242635"/>
<mask id="mask0" mask-type="alpha" maskUnits="userSpaceOnUse" x="12" y="15" width="51" height="42">
<path d="M63 19.9693C61.1229 20.8125 59.1088 21.3844 56.9927 21.6397C59.1534 20.3279 60.8074 18.2472 61.5913 15.7754C59.5645 16.9903 57.3272 17.8724 54.9434 18.3506C53.0345 16.286 50.3192 15 47.3076 15C41.5297 15 36.845 19.7496 36.845 25.6042C36.845 26.4345 36.9374 27.2455 37.1159 28.021C28.422 27.5783 20.7129 23.3554 15.5533 16.9385C14.6514 18.5024 14.1383 20.3246 14.1383 22.2698C14.1383 25.9499 15.9868 29.1971 18.7913 31.0969C17.0767 31.0387 15.4641 30.5605 14.0523 29.7657V29.8982C14.0523 35.0355 17.6599 39.323 22.4434 40.2988C21.567 40.5379 20.6428 40.6704 19.6868 40.6704C19.0112 40.6704 18.3578 40.6025 17.7173 40.4733C19.0493 44.6898 22.9119 47.756 27.4884 47.84C23.9094 50.6833 19.3968 52.3732 14.4953 52.3732C13.6508 52.3732 12.819 52.3215 12 52.2278C16.6306 55.2423 22.128 57 28.0365 57C47.2822 57 57.8022 40.8384 57.8022 26.8223L57.7672 25.4492C59.8227 23.9628 61.6009 22.0953 63 19.9693Z" fill="white"/>
</mask>
<g mask="url(#mask0)">
<rect x="-54" y="-54" width="180" height="180" fill="#626A98"/>
</g>
</svg>
