<svg width="60" height="60" viewBox="0 0 60 60" fill="none" xmlns="http://www.w3.org/2000/svg">
<path d="M53.948 17.1376C54.298 15.9751 53.948 15.1226 52.293 15.1226H46.8105C45.4155 15.1226 44.778 15.8601 44.428 16.6701C44.428 16.6701 41.6405 23.4676 37.6905 27.8751C36.4155 29.1576 35.833 29.5626 35.138 29.5626C34.7905 29.5626 34.2855 29.1576 34.2855 27.9951V17.1376C34.2855 15.7426 33.883 15.1226 32.7205 15.1226H24.1055C23.2355 15.1226 22.7105 15.7676 22.7105 16.3826C22.7105 17.7026 24.6855 18.0076 24.888 21.7276V29.7976C24.888 31.5651 24.5705 31.8876 23.8705 31.8876C22.013 31.8876 17.493 25.0651 14.8105 17.2551C14.288 15.7376 13.7605 15.1251 12.3605 15.1251H6.88049C5.31299 15.1251 5.00049 15.8626 5.00049 16.6726C5.00049 18.1276 6.85799 25.3276 13.653 34.8501C18.183 41.3526 24.5605 44.8776 30.3705 44.8776C33.853 44.8776 34.283 44.0951 34.283 42.7451V37.8301C34.283 36.2651 34.6155 35.9501 35.718 35.9501C36.528 35.9501 37.923 36.3601 41.1755 39.4926C44.8905 43.2076 45.5055 44.8751 47.593 44.8751H53.073C54.638 44.8751 55.4205 44.0926 54.9705 42.5476C54.478 41.0101 52.703 38.7726 50.348 36.1251C49.068 34.6151 47.1555 32.9901 46.573 32.1776C45.7605 31.1301 45.9955 30.6676 46.573 29.7376C46.5755 29.7401 53.253 20.3351 53.948 17.1376Z" fill="#626A98"/>
</svg>
